<?xml version="1.0" standalone="no"?>
<!DOCTYPE svg PUBLIC "-//W3C//DTD SVG 20010904//EN"
 "http://www.w3.org/TR/2001/REC-SVG-20010904/DTD/svg10.dtd">
<svg version="1.0" xmlns="http://www.w3.org/2000/svg"
 width="278.000000pt" height="278.000000pt" viewBox="0 0 278.000000 278.000000"
 preserveAspectRatio="xMidYMid meet">
<metadata>
Created by potrace 1.14, written by Peter Selinger 2001-2017
</metadata>
<g transform="translate(0.000000,278.000000) scale(0.100000,-0.100000)"
fill="#000000" stroke="none">
<path d="M1300 2570 c-8 -5 -27 -10 -42 -10 -15 0 -53 -11 -84 -25 -31 -14
-66 -25 -77 -25 -27 0 -187 -79 -187 -92 0 -5 -18 -31 -41 -56 -62 -71 -89
-132 -37 -85 40 36 33 -19 -8 -64 -14 -15 -24 -38 -24 -54 0 -21 -7 -32 -29
-44 -21 -11 -28 -20 -24 -34 3 -11 0 -36 -7 -56 -15 -45 -8 -53 18 -25 15 17
25 20 38 12 15 -8 13 -12 -14 -32 -46 -34 -62 -83 -49 -147 6 -29 13 -53 16
-53 4 0 19 23 34 51 22 41 31 49 47 44 12 -4 20 -2 20 5 0 6 -6 8 -12 4 -7 -4
-4 2 6 14 22 26 28 28 20 7 -4 -8 -2 -15 4 -15 13 0 24 29 15 42 -3 6 -2 8 4
5 6 -4 28 9 51 28 l40 35 6 -24 c3 -14 2 -36 -4 -51 -14 -36 -13 -40 5 -25 27
22 28 3 3 -32 -30 -40 -45 -78 -54 -138 -8 -56 -20 -81 -37 -75 -9 4 -12 -11
-12 -55 -1 -33 1 -60 4 -60 2 0 13 8 23 17 18 16 18 15 3 -28 -9 -24 -14 -52
-11 -61 7 -28 -15 -33 -36 -8 -18 22 -18 22 -18 1 0 -14 -5 -19 -15 -15 -18 7
-20 -7 -4 -23 9 -9 8 -16 -5 -28 -19 -20 -19 -17 -4 -105 13 -73 17 -80 38
-55 17 21 25 19 38 -10 7 -15 8 -25 2 -25 -15 0 -12 -36 5 -50 8 -7 15 -25 15
-40 0 -19 8 -33 26 -45 31 -20 41 -13 26 19 -6 13 -8 34 -5 47 4 15 3 20 -5
15 -8 -5 -12 2 -12 18 0 23 2 25 25 16 20 -7 25 -6 25 5 0 8 -6 12 -12 10 -16
-6 -23 120 -10 169 5 17 5 45 1 61 -5 17 -9 60 -10 96 -1 67 11 102 44 127 11
9 16 21 12 33 -4 10 -3 24 1 31 8 12 16 56 17 93 1 11 8 25 16 32 14 11 14 12
-1 13 -11 0 -18 8 -18 19 0 10 -6 24 -14 30 -16 13 -27 61 -15 61 5 0 9 15 9
34 0 18 10 48 23 67 19 28 30 34 61 36 49 1 54 -14 22 -74 -29 -54 -31 -64
-14 -61 23 5 18 -29 -7 -57 -27 -28 -22 -30 28 -10 14 6 17 3 15 -16 -2 -19 3
-24 27 -29 17 -3 38 -1 47 4 9 6 20 7 25 3 4 -4 -23 -37 -60 -72 -37 -35 -67
-67 -67 -72 0 -4 -14 -22 -30 -40 -32 -34 -39 -63 -15 -63 12 0 11 -5 -2 -29
-16 -26 -16 -30 0 -54 11 -17 33 -29 67 -38 27 -7 50 -17 50 -22 0 -5 6 -7 13
-4 7 3 24 -4 38 -14 13 -10 18 -19 11 -19 -19 0 -82 -53 -82 -67 0 -7 -4 -13
-8 -13 -4 0 -16 -14 -26 -31 -10 -17 -24 -28 -31 -26 -17 7 -44 -27 -61 -76
-8 -22 -19 -46 -26 -54 -8 -10 -8 -17 0 -25 7 -7 9 -28 5 -56 -3 -25 -2 -47 4
-50 15 -11 32 -68 23 -82 -4 -7 -13 -9 -20 -5 -7 4 -2 -7 11 -24 22 -30 24
-42 24 -149 0 -74 5 -125 12 -138 23 -39 -11 -40 -54 -1 -18 16 -23 31 -23 73
0 57 -15 78 -37 49 -18 -26 -18 -99 1 -92 8 3 19 -8 30 -29 22 -48 20 -56 -6
-16 -15 24 -23 30 -29 21 -10 -18 -19 -7 -30 33 -7 28 -8 25 -6 -22 1 -31 8
-59 15 -65 10 -8 10 -14 -2 -30 -14 -18 -15 -18 -16 -2 0 9 -4 17 -10 17 -12
0 -13 -6 0 -29 13 -26 23 -107 15 -131 -10 -31 -20 -14 -20 33 0 38 -2 42 -22
40 -14 -2 -23 3 -23 12 0 7 -5 17 -11 21 -9 5 -10 -3 -5 -30 4 -23 3 -36 -4
-36 -5 0 -10 5 -10 12 0 6 -6 4 -13 -6 -8 -11 -19 -15 -30 -10 -17 6 -16 9 5
32 13 14 19 23 13 20 -5 -3 -27 -13 -47 -23 -21 -9 -38 -24 -38 -31 0 -8 -11
-18 -23 -23 -13 -5 -38 -23 -55 -40 -18 -19 -41 -31 -56 -31 -14 0 -25 -3 -25
-7 3 -19 -2 -33 -12 -33 -6 0 -8 7 -4 18 3 9 -11 1 -32 -19 -21 -20 -46 -39
-55 -42 -10 -4 -18 -11 -18 -17 0 -7 -8 -9 -21 -5 -15 5 -25 1 -36 -14 -8 -12
-22 -20 -31 -19 -9 2 -17 -4 -17 -12 0 -8 -10 -16 -22 -18 -18 -3 -21 0 -17
13 6 15 4 15 -15 4 -27 -17 -27 -29 0 -29 11 0 17 -4 14 -10 -3 -5 -17 -10
-30 -10 -18 0 -23 4 -19 15 5 13 2 14 -19 6 -33 -13 -69 -33 -82 -47 -26 -27
-87 -65 -98 -61 -21 8 -47 -13 -47 -38 l0 -25 1390 0 1390 0 0 49 c0 31 -5 53
-15 61 -18 15 -20 -1 -3 -18 7 -7 8 -12 2 -12 -6 0 -20 13 -32 29 -14 20 -27
28 -40 24 -14 -3 -26 5 -42 27 -15 22 -27 29 -40 25 -13 -4 -24 2 -36 20 -9
14 -21 25 -26 25 -6 0 -5 -6 2 -15 6 -8 8 -20 4 -26 -5 -9 -14 -4 -30 16 -16
20 -32 28 -55 29 -18 1 -34 7 -36 14 -6 16 19 16 36 0 11 -11 13 -10 7 5 -5
16 -2 18 27 13 31 -6 31 -5 -8 13 -22 11 -48 20 -57 20 -9 1 -20 6 -23 11 -7
11 -49 9 -61 -2 -3 -4 -14 -3 -23 2 -9 5 -28 11 -43 14 -14 3 -40 17 -56 31
-17 14 -37 25 -46 25 -9 0 -33 11 -54 25 -20 13 -52 27 -70 31 -17 4 -32 10
-32 15 0 5 -4 9 -10 9 -5 0 -10 -10 -10 -22 0 -41 -12 -9 -20 54 -4 35 -17 84
-30 110 -16 35 -20 56 -15 80 9 37 154 238 172 238 7 0 13 11 13 25 0 14 4 33
9 43 13 24 23 54 26 74 3 26 11 31 32 20 22 -12 111 -6 129 9 7 6 20 6 37 0
17 -7 28 -7 32 -1 9 15 45 12 61 -5 25 -24 38 -18 95 46 30 34 66 76 82 93 18
21 27 41 27 65 l0 34 -62 -6 -63 -6 -40 45 c-23 24 -49 44 -58 44 -22 0 -98
-40 -121 -63 -38 -37 -49 -23 -60 78 -8 62 -23 80 -32 37 -4 -18 -11 -35 -15
-38 -12 -7 -11 2 2 45 7 20 14 43 16 51 4 13 6 12 17 -2 12 -16 15 -16 37 8
24 25 24 26 5 40 -25 18 -32 18 -40 -2 -3 -8 -10 -12 -16 -9 -5 3 -16 3 -22
-2 -26 -16 -38 -11 -38 15 1 25 2 25 14 10 19 -26 24 -22 31 20 3 20 10 45 16
55 5 10 7 22 4 28 -4 5 -9 26 -11 47 -3 20 -9 41 -14 46 -13 13 -13 -10 0 -34
6 -11 6 -21 1 -24 -13 -8 -34 49 -26 73 3 12 2 21 -3 21 -5 0 -7 14 -4 30 3
18 0 30 -7 30 -6 0 -11 12 -11 26 0 14 -5 35 -12 47 -10 20 -9 21 5 9 13 -11
15 -10 10 10 -12 51 24 -17 47 -89 12 -40 24 -73 26 -73 2 0 3 40 2 88 0 49 1
93 5 98 3 5 -3 33 -13 62 -11 30 -14 52 -8 52 6 0 7 8 3 18 -4 9 -10 23 -13
31 -3 8 -1 12 5 8 6 -4 23 5 37 18 26 24 27 25 4 22 -14 -1 -23 3 -23 13 0 17
-55 39 -97 39 -17 1 -28 7 -28 15 0 8 -6 17 -12 20 -10 5 -10 7 0 12 6 3 12
11 12 17 0 7 9 18 20 25 37 23 24 40 -27 39 l-48 -2 -3 52 c-3 46 -7 56 -36
78 -55 42 -173 68 -321 70 -71 2 -186 6 -255 9 -78 4 -131 3 -140 -4z m501
-47 c13 -15 12 -15 -8 -4 -24 12 -29 21 -14 21 5 0 15 -7 22 -17z m89 -14 c34
-30 34 -30 5 -13 -57 33 -71 44 -54 44 8 0 30 -14 49 -31z m140 -88 c0 -21
-16 -2 -24 29 -7 24 -6 24 8 6 9 -11 16 -27 16 -35z m-128 -254 c7 -7 25 -18
41 -24 15 -7 27 -17 27 -22 0 -15 -18 -23 -25 -11 -3 5 -15 10 -25 10 -17 0
-50 34 -50 52 0 12 17 9 32 -5z m294 -99 c5 -8 1 -9 -11 -4 -11 4 -22 2 -26
-6 -11 -17 -21 -5 -23 31 l-2 30 28 -20 c15 -11 31 -25 34 -31z m-1199 -90
c-3 -8 -6 -5 -6 6 -1 11 2 17 5 13 3 -3 4 -12 1 -19z m947 -94 c4 -10 13 -13
25 -9 13 4 27 -5 50 -30 49 -56 39 -77 -12 -27 -23 23 -47 42 -52 42 -11 0
-45 31 -45 41 0 13 28 -1 34 -17z m-314 -234 c7 -12 7 -33 1 -60 -9 -42 -4
-83 9 -75 4 3 10 -13 12 -35 2 -29 0 -39 -9 -36 -12 5 -16 -4 -28 -59 -8 -41
-27 -63 -56 -68 -13 -3 -42 -12 -63 -21 l-38 -16 6 26 c4 14 16 39 28 55 24
32 19 43 -20 44 -19 0 -26 4 -23 15 2 8 3 27 2 43 -1 15 3 27 9 27 5 0 10 -9
10 -19 0 -11 4 -23 10 -26 11 -7 59 43 60 63 0 6 4 12 9 12 5 0 13 10 17 23 7
21 9 32 12 100 2 33 35 38 52 7z m500 -86 c5 -33 14 -86 19 -119 6 -33 11 -71
11 -84 0 -22 -2 -20 -25 13 -14 20 -25 41 -25 45 0 5 -7 11 -15 15 -8 3 -15 1
-15 -4 0 -6 5 -10 11 -10 5 0 8 -4 5 -9 -3 -5 -15 -7 -27 -4 -16 4 -17 8 -7
14 10 7 10 9 1 9 -7 0 -13 6 -13 13 0 13 -24 28 -64 41 -15 5 -16 9 -6 21 7 8
20 15 30 15 26 0 42 23 27 40 -10 10 -8 12 8 6 52 -19 56 -17 49 22 -3 20 -8
46 -11 56 -5 18 -4 18 16 -1 15 -14 25 -40 31 -79z m-470 5 c0 -5 -4 -9 -10
-9 -5 0 -10 7 -10 16 0 8 5 12 10 9 6 -3 10 -10 10 -16z m537 -96 c-3 -10 -5
-2 -5 17 0 19 2 27 5 18 2 -10 2 -26 0 -35z m-504 -6 c11 -27 33 -55 57 -73
22 -16 40 -32 40 -36 0 -3 -14 -10 -32 -13 -28 -6 -36 -3 -60 24 -15 17 -28
42 -28 55 0 13 -3 38 -6 55 -9 45 8 38 29 -12z m-783 -64 c0 -20 -24 -11 -28
10 -2 12 1 15 12 11 9 -3 16 -13 16 -21z m0 -90 c0 -16 3 -39 6 -53 6 -24 6
-25 -9 -5 -18 22 -23 85 -7 85 6 0 10 -12 10 -27z m44 -22 c1 -23 -1 -41 -5
-41 -10 0 -20 45 -10 48 5 2 6 13 3 25 -3 12 -2 19 3 15 4 -4 8 -25 9 -47z
m1240 -66 c-4 -8 -8 -15 -10 -15 -2 0 -4 7 -4 15 0 8 4 15 10 15 5 0 7 -7 4
-15z m-1220 -620 c3 -8 1 -15 -4 -15 -6 0 -10 7 -10 15 0 8 2 15 4 15 2 0 6
-7 10 -15z m1186 -269 c0 -6 -7 -2 -15 8 -8 11 -15 25 -15 30 0 6 7 2 15 -8 8
-11 15 -25 15 -30z m-123 -3 c-3 -10 -5 -4 -5 12 0 17 2 24 5 18 2 -7 2 -21 0
-30z m33 17 c0 -5 -2 -10 -4 -10 -3 0 -8 5 -11 10 -3 6 -1 10 4 10 6 0 11 -4
11 -10z m185 -40 c10 -11 16 -20 13 -20 -3 0 -13 9 -23 20 -10 11 -16 20 -13
20 3 0 13 -9 23 -20z m-42 -72 c3 -10 3 -18 -1 -18 -6 0 -40 64 -50 95 -6 17
44 -59 51 -77z m188 20 c27 -27 30 -34 15 -36 -10 -2 -32 12 -52 32 -30 31
-32 36 -15 36 11 0 34 -15 52 -32z m-1871 12 c-8 -5 -19 -10 -25 -10 -5 0 -3
5 5 10 8 5 20 10 25 10 6 0 3 -5 -5 -10z m1560 -20 c6 -11 8 -20 6 -20 -3 0
-10 9 -16 20 -6 11 -8 20 -6 20 3 0 10 -9 16 -20z m50 0 c0 -5 -4 -10 -9 -10
-6 0 -13 5 -16 10 -3 6 1 10 9 10 9 0 16 -4 16 -10z m179 -31 c3 -11 -1 -10
-19 2 -13 9 -26 22 -29 30 -3 11 1 10 19 -2 13 -9 26 -22 29 -30z m36 11 c3
-5 2 -10 -4 -10 -5 0 -13 5 -16 10 -3 6 -2 10 4 10 5 0 13 -4 16 -10z m101
-48 c-9 -9 -37 8 -31 18 5 8 11 7 21 -1 8 -6 12 -14 10 -17z m-1944 -14 c-6
-6 -15 -8 -19 -4 -4 4 -1 11 7 16 19 12 27 3 12 -12z m-32 -22 c0 -15 -42 -14
-47 1 -2 6 4 13 14 15 23 6 33 0 33 -16z m-93 -12 c-9 -9 -28 6 -21 18 4 6 10
6 17 -1 6 -6 8 -13 4 -17z m1993 1 c7 -9 8 -15 2 -15 -5 0 -12 7 -16 15 -3 8
-4 15 -2 15 2 0 9 -7 16 -15z m-2026 -17 c10 -39 6 -44 -11 -13 -10 18 -18 25
-21 17 -2 -7 2 -19 8 -27 8 -10 9 -15 2 -15 -6 0 -16 10 -23 21 -9 17 -8 23 2
30 23 14 36 10 43 -13z m-63 -14 c11 -14 9 -15 -16 -12 -16 1 -30 9 -33 16 -6
18 33 15 49 -4z m1220 -25 c9 -17 8 -25 -6 -38 -15 -15 -16 -15 -9 2 4 12 1
17 -10 17 -9 0 -16 8 -16 20 0 26 26 26 41 -1z m-1306 -19 c3 -5 1 -10 -4 -10
-6 0 -11 5 -11 10 0 6 2 10 4 10 3 0 8 -4 11 -10z"/>
<path d="M770 2235 c-7 -9 -11 -18 -8 -20 3 -3 11 1 18 10 7 9 11 18 8 20 -3
3 -11 -1 -18 -10z"/>
<path d="M822 1798 c-19 -63 -23 -90 -12 -83 5 3 10 17 10 30 0 13 5 36 10 51
6 15 9 29 6 31 -2 2 -9 -11 -14 -29z"/>
<path d="M882 1700 c0 -14 2 -19 5 -12 2 6 2 18 0 25 -3 6 -5 1 -5 -13z"/>
<path d="M814 1646 c-3 -13 -4 -37 -2 -52 l4 -29 11 25 c12 25 12 25 12 -7 1
-18 6 -33 12 -33 7 0 9 9 5 23 -3 12 -6 39 -6 60 0 43 -26 53 -36 13z"/>
<path d="M860 1616 c0 -14 5 -26 10 -26 6 0 10 9 10 19 0 11 -4 23 -10 26 -6
4 -10 -5 -10 -19z"/>
<path d="M0 1383 c0 -90 1 -163 3 -163 1 0 107 -5 235 -10 207 -9 236 -8 274
7 34 14 48 14 85 5 94 -26 119 -8 59 40 -25 20 -48 28 -82 30 -27 2 -49 8 -52
16 -2 6 3 12 12 12 9 0 16 5 16 12 0 6 3 8 7 5 3 -4 11 -2 18 3 7 5 44 12 84
15 40 2 77 8 83 11 6 4 21 -5 33 -20 l22 -28 5 67 c3 37 11 72 17 78 15 15 14
27 -3 27 -8 0 -16 5 -18 11 -6 17 -46 2 -51 -19 -4 -16 -5 -16 -6 1 -1 11 -9
17 -27 17 -14 0 -34 4 -44 10 -30 16 -268 32 -512 34 l-158 2 0 -163z m510
-62 c0 -12 -40 -41 -56 -41 -21 0 -54 19 -54 31 0 5 9 13 21 17 23 9 89 3 89
-7z"/>
<path d="M990 1023 c0 -5 5 -15 10 -23 8 -12 10 -11 10 8 0 12 -4 22 -10 22
-5 0 -10 -3 -10 -7z"/>
<path d="M860 527 c0 -19 10 -27 25 -20 17 6 8 33 -11 33 -8 0 -14 -6 -14 -13z"/>
<path d="M2310 351 c0 -5 5 -13 10 -16 6 -3 10 -2 10 4 0 5 -4 13 -10 16 -5 3
-10 2 -10 -4z"/>
<path d="M465 310 c-3 -5 -1 -10 4 -10 6 0 11 5 11 10 0 6 -2 10 -4 10 -3 0
-8 -4 -11 -10z"/>
</g>
</svg>
